<?xml version="1.0" encoding="utf-8"?>
<!-- Generator: Adobe Illustrator 19.2.0, SVG Export Plug-In . SVG Version: 6.00 Build 0)  -->
<svg version="1.1" id="Layer_1" xmlns="http://www.w3.org/2000/svg" xmlns:xlink="http://www.w3.org/1999/xlink" x="0px" y="0px"
	 viewBox="0 0 500 250" style="enable-background:new 0 0 500 250;" xml:space="preserve">
<style type="text/css">
	.st0{fill:#EAE9F5;}
	.st1{clip-path:url(#SVGID_2_);}
	.st2{fill:url(#SVGID_3_);}
	.st3{fill:url(#SVGID_4_);}
	.st4{fill:url(#SVGID_5_);}
	.st5{fill:url(#SVGID_6_);}
	.st6{fill:url(#SVGID_7_);}
	.st7{fill:url(#SVGID_8_);}
</style>
<g>
	<g>
		<path class="st0" d="M41.7,35.5c-7.5,3.1-13.3,7.7-17.3,13.9c-4,6.2-6,13.7-6,22.6c0,3.5,0.4,6.3,1.1,8.3c0.2,0.7,0.5,1.3,0.8,1.9
			c0.2,0.4,0.3,0.8,0.3,1.1c-6,0-10.5-1.2-13.2-3.6c-3.1-2.6-4.7-6.8-4.7-12.7c0-3.6,0.8-7.3,2.4-10.8c1.6-3.6,3.8-7,6.7-10.3
			c2.7-3.2,6-6.1,9.8-8.9c3.8-2.7,7.9-5.1,12.3-7.1c9.3-4.2,18.5-6.3,27.6-6.3c2.5,0,4.7,0.1,6.7,0.3L41.5,149.1h-24L41.7,35.5z"/>
		<path class="st0" d="M150.8,144.2c-2.9-3.4-4.3-7.7-4.3-13c0-2.5,0.3-5.4,0.9-8.7c0.6-3.3,1.6-7.6,2.8-12.8
			c1.3-5.3,2.2-9.6,2.8-12.8c0.6-3.2,0.9-5.9,0.9-8.3c0-5.7-2-8.6-6-8.6c-2.8,0-5.4,1.5-7.8,4.5c-2,2.6-3.8,6.2-5.2,10.9l-11.4,53.6
			H99.4l12.2-57.7c0.3-1.3,0.5-2.7,0.5-4.2c0-2.2-0.4-3.9-1.1-5.1c-0.9-1.5-2.3-2.2-4-2.2c-3.2,0-5.9,1.5-8.2,4.6
			c-2.1,2.6-3.8,6.3-5.3,11l-11.4,53.6H58.1l17.7-83.6h24.1l-1.8,8.7c3.3-3.6,6.8-6.2,10.7-7.8c3-1.1,6.3-1.7,9.7-1.7
			c4.7,0,8.4,1.1,11.2,3.3c3.1,2.5,5.1,6.2,6,11.1c3.6-5.6,7.7-9.5,12.4-11.8c3.3-1.6,6.9-2.4,10.9-2.4c5.6,0,10,1.5,13.3,4.4
			c3.5,3.2,5.2,8,5.2,14.5c0,3.6-0.7,8.7-2,15.1c-0.5,2.7-1.2,5.4-2,8.1c-1.4,5.2-2.5,10-3.3,14.5c-0.4,2.3-0.7,4.1-0.7,5.6
			c0,2.2,0.5,4,1.5,5.2c1,1.2,2.7,1.8,5.2,1.8c3.3,0,6.1-1.4,8.4-4.1c1.7-2.1,3.6-5.6,5.6-10.7h7c-4.1,12.2-9.4,20.8-15.7,25.7
			c-4.5,3.5-9.6,5.2-15.4,5.2C159.2,150.1,154.1,148.1,150.8,144.2z"/>
		<path class="st0" d="M203,59.3h24.1l-2.7,12.6c5.7-4.8,12.2-7.2,19.5-7.2c6.3,0,11.1,1.9,14.5,5.7c3.9,4.5,5.9,11.3,5.9,20.7
			c0,9-1.1,17.4-3.4,25.3c-2.9,10.1-7.1,17.9-12.6,23.4c-6.8,6.9-15.1,10.3-25.1,10.3c-3.9,0-7.1-0.6-9.6-1.8
			c-1.9-0.9-3.5-2.3-4.7-4.2l-8.7,40.7l-25.2,6L203,59.3z M231.9,127.3c3-4.3,5.5-10.3,7.3-18.1c1.5-6.3,2.2-12.5,2.2-18.6
			c0-5.5-1-9.4-3-11.8c-1.3-1.4-3.1-2.1-5.4-2.1c-2,0-4.1,0.7-6.1,2.1c-2.1,1.4-3.9,3.5-5.4,6.1l-9.9,46.8c0.4,1.1,1.1,2,2.2,2.7
			c1.1,0.7,2.5,1.1,4.2,1.1C223.4,135.5,228,132.8,231.9,127.3z"/>
		<path class="st0" d="M273.1,144.1c-4.6-4.7-6.9-11.6-6.9-20.9c0-3.9,0.4-8.1,1.2-12.4c0.8-4.4,1.9-8.7,3.5-12.9
			c3.5-9.6,8.2-17.3,14.3-23.2c7-6.7,15-10,24.1-10c4.5,0,7.9,0.8,10.2,2.3c2.3,1.6,3.4,3.6,3.4,6.2v1.2l1.8-8.9h24.1l-12,56.8
			c-0.5,1.6-0.7,3.4-0.7,5.4c0,4.8,2.3,7.2,6.9,7.2c3,0,5.8-1.6,8.3-4.7c2.1-2.6,3.9-6.3,5.2-11.1h7c-3,8.5-6.6,15.2-10.9,20.2
			c-3.6,4.1-7.6,7-12.2,8.8c-3.3,1.3-6.8,2-10.5,2c-4.7,0-8.5-1.3-11.3-3.9c-2.8-2.6-4.5-6.4-5.1-11.5c-3.2,4.5-6.5,7.9-10,10.5
			c-4.5,3.3-9.4,4.9-14.9,4.9C282.2,150.1,277,148.1,273.1,144.1z M303.4,132.9c1.4-0.7,2.7-1.6,4-2.8c2.9-2.8,4.9-6.5,5.9-11
			l8-37.7c0-0.5-0.1-1.2-0.4-1.9c-0.2-0.7-0.6-1.4-1-2.1c-1.3-1.6-3.1-2.4-5.5-2.4c-2.2,0-4.4,0.7-6.5,2.2c-2.1,1.5-4.1,3.5-5.9,6.1
			c-3.3,4.7-6,10.9-8.1,18.5c-1,3.4-1.7,6.7-2.2,10c-0.5,3.3-0.7,6.3-0.7,8.9c0,5.6,1,9.3,3.1,11.3c0.7,0.8,1.5,1.3,2.4,1.5
			c0.9,0.2,1.8,0.3,2.9,0.3C300.7,133.9,302,133.6,303.4,132.9z"/>
		<path class="st0" d="M360.3,145.3c-3.5-3.5-5.2-8.6-5.2-15.3c0-3.2,0.4-6.8,1.3-10.9l17.9-83.8L399,32l-19.2,90.3
			c-0.4,1.4-0.7,3.2-0.7,5.4c0,2.3,0.5,3.9,1.6,4.8c1.1,0.9,2.8,1.4,5.2,1.4c1.6,0,3.2-0.4,4.8-1.1s3-1.8,4.3-3.1
			c2.7-2.7,4.7-6.2,6-10.6h7c-3,8.4-6.8,15.2-11.3,20.2c-3.8,4.1-8.1,7-12.9,8.8c-3.5,1.3-7.1,2-10.9,2
			C367.6,150.1,363.4,148.5,360.3,145.3z"/>
		<path class="st0" d="M405.7,144.1c-4.6-4.7-6.9-11.6-6.9-20.9c0-3.9,0.4-8.1,1.2-12.4c0.8-4.4,1.9-8.7,3.5-12.9
			c3.5-9.6,8.2-17.3,14.3-23.2c7-6.7,15-10,24.1-10c4.5,0,7.9,0.8,10.2,2.3c2.3,1.6,3.4,3.6,3.4,6.2v1.2l1.8-8.9h24.1l-12,56.8
			c-0.5,1.6-0.7,3.4-0.7,5.4c0,4.8,2.3,7.2,6.9,7.2c3,0,5.8-1.6,8.3-4.7c2.1-2.6,3.9-6.3,5.2-11.1h7c-3,8.5-6.6,15.2-10.9,20.2
			c-3.6,4.1-7.6,7-12.2,8.8c-3.3,1.3-6.8,2-10.5,2c-4.7,0-8.5-1.3-11.3-3.9c-2.8-2.6-4.5-6.4-5.1-11.5c-3.2,4.5-6.5,7.9-10,10.5
			c-4.5,3.3-9.4,4.9-14.9,4.9C414.8,150.1,409.6,148.1,405.7,144.1z M436,132.9c1.4-0.7,2.7-1.6,4-2.8c2.9-2.8,4.9-6.5,5.9-11
			l8-37.7c0-0.5-0.1-1.2-0.4-1.9c-0.2-0.7-0.6-1.4-1-2.1c-1.3-1.6-3.1-2.4-5.5-2.4c-2.2,0-4.4,0.7-6.5,2.2c-2.1,1.5-4.1,3.5-5.9,6.1
			c-3.3,4.7-6,10.9-8.1,18.5c-1,3.4-1.7,6.7-2.2,10c-0.5,3.3-0.7,6.3-0.7,8.9c0,5.6,1,9.3,3.1,11.3c0.7,0.8,1.5,1.3,2.4,1.5
			c0.9,0.2,1.9,0.3,2.9,0.3C433.3,133.9,434.6,133.6,436,132.9z"/>
	</g>
	<g>
		<g>
			<path class="st0" d="M415,178.7h-4.3l0.5-2.1c1.7,0,3.2-0.2,4.7-0.6c2.3-0.6,4.6-1.6,6.9-3l-7.2,34H409L415,178.7z"/>
			<path class="st0" d="M427.7,206.8c-0.8-0.2-1.5-0.6-2.1-1.1c-1.2-0.9-1.8-2.2-1.8-3.7c0-1.2,0.3-2.2,0.9-3
				c0.6-0.8,1.4-1.2,2.3-1.2c0.5,0,1,0.1,1.5,0.4c0.4,0.3,0.7,0.6,0.9,1.1c-0.5,0.3-0.8,0.6-1.1,1.1s-0.4,1-0.4,1.5
				c0,0.6,0.2,1.1,0.6,1.6c0.4,0.4,1,0.6,1.7,0.6c0.9,0,1.8-0.4,2.7-1.1s1.7-1.8,2.5-3.2c0.8-1.4,1.4-3,2-4.8s1-3.8,1.2-5.9l-0.2,0
				c-0.5,1.4-1.4,2.5-2.6,3.2s-2.7,1.1-4.4,1.1c-1.1,0-2-0.2-2.9-0.5s-1.6-0.9-2.2-1.6c-0.6-0.7-1.1-1.5-1.4-2.5s-0.5-2.1-0.5-3.3
				c0-2.2,0.6-4.3,1.8-6.3c0.6-0.9,1.2-1.8,2-2.6c0.8-0.8,1.7-1.5,2.6-2c1.9-1.2,4-1.7,6.3-1.7c2.8,0,4.9,1,6.3,3c1.4,2,2.1,5,2.1,9
				c0,2.1-0.2,4-0.5,6c-0.3,1.9-0.9,3.7-1.5,5.4c-0.7,1.6-1.4,3.1-2.4,4.5s-1.9,2.5-3.1,3.5c-1.1,1-2.4,1.7-3.7,2.2
				c-1.3,0.5-2.7,0.8-4.1,0.8C429.4,207.2,428.5,207.1,427.7,206.8z M437.8,187.7c0.8-1.4,1.3-3.4,1.3-6c0-1.5-0.2-2.7-0.5-3.7
				c-0.5-1.4-1.5-2.1-2.8-2.1c-0.8,0-1.5,0.3-2.2,0.8c-0.7,0.5-1.3,1.3-1.8,2.2c-0.5,0.9-0.9,1.9-1.2,3s-0.4,2.3-0.4,3.4
				c0,1.6,0.3,2.8,0.9,3.6c0.6,0.7,1.3,1.1,2.3,1.1C435.4,190.1,436.9,189.3,437.8,187.7z"/>
			<path class="st0" d="M448.2,205.6c-1.4-1.1-2.1-2.8-2.1-4.9c0-0.9,0.1-1.8,0.4-2.6c0.3-0.8,0.7-1.5,1.2-2
				c1.1-1.2,2.5-1.8,4.2-1.8c1.8,0,2.9,0.8,3.2,2.3c-1.3,0.1-2.3,0.6-3,1.3c-0.7,0.7-1.1,1.7-1.1,2.9c0,1.1,0.3,1.9,0.9,2.5
				c0.6,0.6,1.5,0.9,2.6,0.9c0.9,0,1.7-0.2,2.4-0.6c0.7-0.4,1.4-1,1.9-1.8c0.5-0.8,0.9-1.6,1.2-2.7c0.3-1,0.4-2.1,0.4-3.4
				c0-2.1-0.4-3.7-1.3-4.9c-0.9-1.1-2.1-1.7-3.7-1.7c-0.8,0-1.7,0.2-2.7,0.5c-1,0.3-2,0.9-3.2,1.6l-0.6-0.4l3.5-17.2
				c3.2,0.4,5.7,0.6,7.6,0.6c1.4,0,2.7-0.1,4-0.3c1.3-0.2,2.6-0.5,4-1c0.1,0.5,0.1,1,0.1,1.5c0,1.6-0.4,2.8-1.2,3.7
				c-0.9,1-2.2,1.6-4.1,1.6c-1,0-2.3-0.2-4-0.5c-0.6-0.1-1.2-0.2-2-0.4l-1.6-0.3l-1.8,8.2c1.9-0.9,3.8-1.4,5.6-1.4
				c1.2,0,2.3,0.2,3.3,0.6c1,0.4,1.8,1.1,2.6,1.9s1.3,1.8,1.6,3c0.4,1.2,0.6,2.5,0.6,3.9c0,1.8-0.3,3.5-0.9,5
				c-0.6,1.5-1.5,2.9-2.6,4c-1.1,1.1-2.5,2-4.1,2.6s-3.4,0.9-5.3,0.9C451.6,207.3,449.6,206.7,448.2,205.6z"/>
			<path class="st0" d="M475.5,206.7c-1.3-0.4-2.3-1-3.3-1.7c-0.9-0.8-1.7-1.7-2.2-2.8c-0.5-1.1-0.8-2.3-0.8-3.5
				c0-2.2,0.7-4.1,2.1-5.7c1.4-1.6,3.6-3.1,6.6-4.4c-1.2-1.3-2.2-2.5-2.8-3.6c-0.8-1.4-1.2-2.7-1.2-4.1c0-1.1,0.2-2.2,0.7-3.2
				c0.5-1,1.2-1.9,2.1-2.7c0.9-0.8,2-1.4,3.1-1.8c1.2-0.4,2.5-0.6,3.9-0.6c1.2,0,2.3,0.1,3.4,0.4c1.1,0.3,2,0.7,2.7,1.3
				c0.8,0.6,1.4,1.2,1.8,2c0.4,0.8,0.7,1.6,0.7,2.6c0,1.5-0.5,3-1.6,4.3s-2.8,2.7-5,3.9c0.9,0.9,1.7,1.6,2.3,2.2
				c0.6,0.6,1.1,1.3,1.6,2c1.2,1.7,1.8,3.5,1.9,5.4c0,1.4-0.3,2.7-0.9,4c-0.6,1.3-1.4,2.4-2.5,3.4c-1.1,1-2.3,1.7-3.8,2.3
				c-1.4,0.6-3,0.8-4.6,0.9C478.1,207.3,476.8,207.1,475.5,206.7z M481.6,203.8c0.6-0.3,1.2-0.7,1.6-1.2c0.4-0.5,0.8-1.1,1-1.8
				c0.3-0.7,0.4-1.4,0.4-2.2c0-1.4-0.5-2.8-1.5-4.3c-0.4-0.6-0.9-1.2-1.4-1.8c-0.5-0.6-1.2-1.3-1.9-2c-1.5,1-2.6,2.2-3.3,3.6
				c-0.8,1.4-1.2,2.9-1.2,4.6c0,1.7,0.4,3,1.2,4.1c0.8,1,1.8,1.5,3.1,1.5C480.3,204.2,481,204.1,481.6,203.8z M486.4,182
				c0.7-1.3,1-2.5,1-3.7c0-1.1-0.3-1.9-0.8-2.5c-0.5-0.6-1.3-0.9-2.2-0.9c-0.6,0-1.1,0.1-1.6,0.3c-0.5,0.2-0.9,0.5-1.3,1
				c-0.4,0.4-0.6,0.9-0.8,1.4c-0.2,0.6-0.3,1.2-0.3,1.8c0,1.1,0.3,2.1,1,3.2c0.6,0.9,1.3,1.9,2.4,2.8
				C484.8,184.4,485.7,183.3,486.4,182z"/>
		</g>
	</g>
	<g>
		<defs>
			<rect id="SVGID_1_" x="-17.5" y="106.1" width="543" height="116"/>
		</defs>
		<clipPath id="SVGID_2_">
			<use xlink:href="#SVGID_1_"  style="overflow:visible;"/>
		</clipPath>
		<g class="st1">
			<linearGradient id="SVGID_3_" gradientUnits="userSpaceOnUse" x1="35.4435" y1="110.7602" x2="35.4435" y2="200.8152">
				<stop  offset="0" style="stop-color:#A1A1C6"/>
				<stop  offset="1" style="stop-color:#D8D6EB"/>
			</linearGradient>
			<path class="st2" d="M41.7,35.5c-7.5,3.1-13.3,7.7-17.3,13.9c-4,6.2-6,13.7-6,22.6c0,3.5,0.4,6.3,1.1,8.3
				c0.2,0.7,0.5,1.3,0.8,1.9c0.2,0.4,0.3,0.8,0.3,1.1c-6,0-10.5-1.2-13.2-3.6c-3.1-2.6-4.7-6.8-4.7-12.7c0-3.6,0.8-7.3,2.4-10.8
				c1.6-3.6,3.8-7,6.7-10.3c2.7-3.2,6-6.1,9.8-8.9c3.8-2.7,7.9-5.1,12.3-7.1c9.3-4.2,18.5-6.3,27.6-6.3c2.5,0,4.7,0.1,6.7,0.3
				L41.5,149.1h-24L41.7,35.5z"/>
			<linearGradient id="SVGID_4_" gradientUnits="userSpaceOnUse" x1="127.675" y1="110.7602" x2="127.675" y2="200.8152">
				<stop  offset="0" style="stop-color:#A1A1C6"/>
				<stop  offset="1" style="stop-color:#D8D6EB"/>
			</linearGradient>
			<path class="st3" d="M150.8,144.2c-2.9-3.4-4.3-7.7-4.3-13c0-2.5,0.3-5.4,0.9-8.7c0.6-3.3,1.6-7.6,2.8-12.8
				c1.3-5.3,2.2-9.6,2.8-12.8c0.6-3.2,0.9-5.9,0.9-8.3c0-5.7-2-8.6-6-8.6c-2.8,0-5.4,1.5-7.8,4.5c-2,2.6-3.8,6.2-5.2,10.9
				l-11.4,53.6H99.4l12.2-57.7c0.3-1.3,0.5-2.7,0.5-4.2c0-2.2-0.4-3.9-1.1-5.1c-0.9-1.5-2.3-2.2-4-2.2c-3.2,0-5.9,1.5-8.2,4.6
				c-2.1,2.6-3.8,6.3-5.3,11l-11.4,53.6H58.1l17.7-83.6h24.1l-1.8,8.7c3.3-3.6,6.8-6.2,10.7-7.8c3-1.1,6.3-1.7,9.7-1.7
				c4.7,0,8.4,1.1,11.2,3.3c3.1,2.5,5.1,6.2,6,11.1c3.6-5.6,7.7-9.5,12.4-11.8c3.3-1.6,6.9-2.4,10.9-2.4c5.6,0,10,1.5,13.3,4.4
				c3.5,3.2,5.2,8,5.2,14.5c0,3.6-0.7,8.7-2,15.1c-0.5,2.7-1.2,5.4-2,8.1c-1.4,5.2-2.5,10-3.3,14.5c-0.4,2.3-0.7,4.1-0.7,5.6
				c0,2.2,0.5,4,1.5,5.2c1,1.2,2.7,1.8,5.2,1.8c3.3,0,6.1-1.4,8.4-4.1c1.7-2.1,3.6-5.6,5.6-10.7h7c-4.1,12.2-9.4,20.8-15.7,25.7
				c-4.5,3.5-9.6,5.2-15.4,5.2C159.2,150.1,154.1,148.1,150.8,144.2z"/>
			<linearGradient id="SVGID_5_" gradientUnits="userSpaceOnUse" x1="219.6612" y1="110.7602" x2="219.6612" y2="200.8152">
				<stop  offset="0" style="stop-color:#A1A1C6"/>
				<stop  offset="1" style="stop-color:#D8D6EB"/>
			</linearGradient>
			<path class="st4" d="M203,59.3h24.1l-2.7,12.6c5.7-4.8,12.2-7.2,19.5-7.2c6.3,0,11.1,1.9,14.5,5.7c3.9,4.5,5.9,11.3,5.9,20.7
				c0,9-1.1,17.4-3.4,25.3c-2.9,10.1-7.1,17.9-12.6,23.4c-6.8,6.9-15.1,10.3-25.1,10.3c-3.9,0-7.1-0.6-9.6-1.8
				c-1.9-0.9-3.5-2.3-4.7-4.2l-8.7,40.7l-25.2,6L203,59.3z M231.9,127.3c3-4.3,5.5-10.3,7.3-18.1c1.5-6.3,2.2-12.5,2.2-18.6
				c0-5.5-1-9.4-3-11.8c-1.3-1.4-3.1-2.1-5.4-2.1c-2,0-4.1,0.7-6.1,2.1c-2.1,1.4-3.9,3.5-5.4,6.1l-9.9,46.8c0.4,1.1,1.1,2,2.2,2.7
				c1.1,0.7,2.5,1.1,4.2,1.1C223.4,135.5,228,132.8,231.9,127.3z"/>
			<linearGradient id="SVGID_6_" gradientUnits="userSpaceOnUse" x1="314.833" y1="110.7602" x2="314.833" y2="200.8152">
				<stop  offset="0" style="stop-color:#A1A1C6"/>
				<stop  offset="1" style="stop-color:#D8D6EB"/>
			</linearGradient>
			<path class="st5" d="M273.1,144.1c-4.6-4.7-6.9-11.6-6.9-20.9c0-3.9,0.4-8.1,1.2-12.4c0.8-4.4,1.9-8.7,3.5-12.9
				c3.5-9.6,8.2-17.3,14.3-23.2c7-6.7,15-10,24.1-10c4.5,0,7.9,0.8,10.2,2.3c2.3,1.6,3.4,3.6,3.4,6.2v1.2l1.8-8.9h24.1l-12,56.8
				c-0.5,1.6-0.7,3.4-0.7,5.4c0,4.8,2.3,7.2,6.9,7.2c3,0,5.8-1.6,8.3-4.7c2.1-2.6,3.9-6.3,5.2-11.1h7c-3,8.5-6.6,15.2-10.9,20.2
				c-3.6,4.1-7.6,7-12.2,8.8c-3.3,1.3-6.8,2-10.5,2c-4.7,0-8.5-1.3-11.3-3.9c-2.8-2.6-4.5-6.4-5.1-11.5c-3.2,4.5-6.5,7.9-10,10.5
				c-4.5,3.3-9.4,4.9-14.9,4.9C282.2,150.1,277,148.1,273.1,144.1z M303.4,132.9c1.4-0.7,2.7-1.6,4-2.8c2.9-2.8,4.9-6.5,5.9-11
				l8-37.7c0-0.5-0.1-1.2-0.4-1.9c-0.2-0.7-0.6-1.4-1-2.1c-1.3-1.6-3.1-2.4-5.5-2.4c-2.2,0-4.4,0.7-6.5,2.2
				c-2.1,1.5-4.1,3.5-5.9,6.1c-3.3,4.7-6,10.9-8.1,18.5c-1,3.4-1.7,6.7-2.2,10c-0.5,3.3-0.7,6.3-0.7,8.9c0,5.6,1,9.3,3.1,11.3
				c0.7,0.8,1.5,1.3,2.4,1.5c0.9,0.2,1.8,0.3,2.9,0.3C300.7,133.9,302,133.6,303.4,132.9z"/>
			<linearGradient id="SVGID_7_" gradientUnits="userSpaceOnUse" x1="381.587" y1="110.7602" x2="381.587" y2="200.8152">
				<stop  offset="0" style="stop-color:#A1A1C6"/>
				<stop  offset="1" style="stop-color:#D8D6EB"/>
			</linearGradient>
			<path class="st6" d="M360.3,145.3c-3.5-3.5-5.2-8.6-5.2-15.3c0-3.2,0.4-6.8,1.3-10.9l17.9-83.8L399,32l-19.2,90.3
				c-0.4,1.4-0.7,3.2-0.7,5.4c0,2.3,0.5,3.9,1.6,4.8c1.1,0.9,2.8,1.4,5.2,1.4c1.6,0,3.2-0.4,4.8-1.1s3-1.8,4.3-3.1
				c2.7-2.7,4.7-6.2,6-10.6h7c-3,8.4-6.8,15.2-11.3,20.2c-3.8,4.1-8.1,7-12.9,8.8c-3.5,1.3-7.1,2-10.9,2
				C367.6,150.1,363.4,148.5,360.3,145.3z"/>
			<linearGradient id="SVGID_8_" gradientUnits="userSpaceOnUse" x1="447.4435" y1="110.7602" x2="447.4435" y2="200.8152">
				<stop  offset="0" style="stop-color:#A1A1C6"/>
				<stop  offset="1" style="stop-color:#D8D6EB"/>
			</linearGradient>
			<path class="st7" d="M405.7,144.1c-4.6-4.7-6.9-11.6-6.9-20.9c0-3.9,0.4-8.1,1.2-12.4c0.8-4.4,1.9-8.7,3.5-12.9
				c3.5-9.6,8.2-17.3,14.3-23.2c7-6.7,15-10,24.1-10c4.5,0,7.9,0.8,10.2,2.3c2.3,1.6,3.4,3.6,3.4,6.2v1.2l1.8-8.9h24.1l-12,56.8
				c-0.5,1.6-0.7,3.4-0.7,5.4c0,4.8,2.3,7.2,6.9,7.2c3,0,5.8-1.6,8.3-4.7c2.1-2.6,3.9-6.3,5.2-11.1h7c-3,8.5-6.6,15.2-10.9,20.2
				c-3.6,4.1-7.6,7-12.2,8.8c-3.3,1.3-6.8,2-10.5,2c-4.7,0-8.5-1.3-11.3-3.9c-2.8-2.6-4.5-6.4-5.1-11.5c-3.2,4.5-6.5,7.9-10,10.5
				c-4.5,3.3-9.4,4.9-14.9,4.9C414.8,150.1,409.6,148.1,405.7,144.1z M436,132.9c1.4-0.7,2.7-1.6,4-2.8c2.9-2.8,4.9-6.5,5.9-11
				l8-37.7c0-0.5-0.1-1.2-0.4-1.9c-0.2-0.7-0.6-1.4-1-2.1c-1.3-1.6-3.1-2.4-5.5-2.4c-2.2,0-4.4,0.7-6.5,2.2
				c-2.1,1.5-4.1,3.5-5.9,6.1c-3.3,4.7-6,10.9-8.1,18.5c-1,3.4-1.7,6.7-2.2,10c-0.5,3.3-0.7,6.3-0.7,8.9c0,5.6,1,9.3,3.1,11.3
				c0.7,0.8,1.5,1.3,2.4,1.5c0.9,0.2,1.9,0.3,2.9,0.3C433.3,133.9,434.6,133.6,436,132.9z"/>
		</g>
	</g>
</g>
</svg>
